<?xml version="1.0" encoding="UTF-8"?>
<svg version="1.1" xmlns="http://www.w3.org/2000/svg" width="1024" height="1024">
<path d="M0 0 C337.92 0 675.84 0 1024 0 C1024 337.92 1024 675.84 1024 1024 C686.08 1024 348.16 1024 0 1024 C0 686.08 0 348.16 0 0 Z " fill="#FEFEFE" transform="translate(0,0)"/>
<path d="M0 0 C0.66 0.33 1.32 0.66 2 1 C1.14277344 1.845625 0.28554688 2.69125 -0.59765625 3.5625 C-6.06579837 8.97946325 -11.47464527 14.37162669 -16.4609375 20.2421875 C-18.60534094 22.69137924 -20.92861221 24.93881556 -23.25 27.21875 C-25.08242487 29.08389674 -26.79353135 31.01927746 -28.5 33 C-31.25331838 36.19581597 -34.14663154 39.17197104 -37.15600586 42.125 C-38.93483586 43.93374015 -40.5993334 45.79632672 -42.25390625 47.71875 C-45.89061295 51.90081842 -49.64015108 55.96384872 -53.4375 60 C-54.09492187 60.70060547 -54.75234375 61.40121094 -55.4296875 62.12304688 C-59.31642457 66.25222398 -63.26380948 70.30244776 -67.30859375 74.27734375 C-69.75594417 76.76991081 -72.00877713 79.4183734 -74.28515625 82.06640625 C-75.96004299 83.95494597 -77.69947587 85.73155648 -79.5 87.5 C-81.91332717 89.87042357 -84.17271853 92.30736308 -86.375 94.875 C-88.96634205 97.8846753 -91.67254783 100.71088616 -94.5 103.5 C-97.89934905 106.8534119 -101.06182791 110.31875657 -104.1640625 113.9453125 C-107.02525959 117.14741818 -110.10281722 120.12375777 -113.1796875 123.1171875 C-115.06383898 124.87753339 -115.06383898 124.87753339 -116 127 C-116.66 127 -117.32 127 -118 127 C-118.22935005 133.44091387 -117.57140433 138.65884002 -115.75 144.8125 C-113.61753776 152.42161632 -111.88806709 160.03168006 -110.43261719 167.7980957 C-109.42466593 173.11442399 -108.19524698 178.34288853 -106.86132812 183.58666992 C-105.11159748 190.52062235 -103.46633524 197.48015951 -101.8125 204.4375 C-101.61746887 205.25725311 -101.42243774 206.07700623 -101.22149658 206.92160034 C-98.10542637 220.04710998 -95.18759094 233.20693772 -92.37686157 246.40081787 C-89.97593855 257.6586201 -87.39499419 268.85572065 -84.64624023 280.03466797 C-81.89927187 291.26398179 -79.40036126 302.54325571 -76.91455078 313.83251953 C-74.95788693 322.71473737 -72.95016692 331.58203014 -70.875 340.4375 C-67.6495356 354.23648471 -64.81259159 368.11188695 -62 382 C-60.87183584 378.70886478 -59.79678648 375.477648 -59.10546875 372.06640625 C-57.35810424 363.48053719 -55.55398525 354.90977706 -53.67578125 346.3515625 C-51.90173055 338.22981429 -50.17614708 330.09953928 -48.5 321.95703125 C-48.29397659 320.95787186 -48.08795319 319.95871246 -47.87568665 318.92927551 C-47.03953314 314.8711017 -46.2043435 310.81274548 -45.375 306.75317383 C-43.06196547 295.4436999 -40.61126771 284.21018093 -37.73684692 273.02947998 C-36.12919119 266.70714515 -34.88130363 260.37334953 -33.73339844 253.95361328 C-32.56505523 247.50436683 -31.08392962 241.11979455 -29.64163208 234.72744751 C-28.92608356 231.55581218 -28.21682731 228.38277834 -27.50715637 225.20982361 C-27.15327477 223.62777715 -26.79910204 222.04579579 -26.44462585 220.46388245 C-25.12780488 214.58496299 -23.83491004 208.70120014 -22.5625 202.8125 C-17.15309288 177.83417825 -11.66732369 152.87272114 -6.0625 127.9375 C-5.87127563 127.08552032 -5.68005127 126.23354065 -5.48303223 125.35574341 C-4.93905046 122.93351775 -4.39363255 120.51162053 -3.84765625 118.08984375 C-3.6896907 117.3863681 -3.53172516 116.68289246 -3.36897278 115.95809937 C-2.31257253 111.28474187 -1.1627491 106.6509964 0 102 C17.82 102 35.64 102 54 102 C52.87528345 113.24716553 52.87528345 113.24716553 51.80078125 117.56640625 C51.44560425 119.01805176 51.44560425 119.01805176 51.08325195 120.49902344 C50.70172974 122.01544434 50.70172974 122.01544434 50.3125 123.5625 C49.77066304 125.76688523 49.22900161 127.97131362 48.6875 130.17578125 C48.4090625 131.29936035 48.130625 132.42293945 47.84375 133.58056641 C46.47420896 139.1308534 45.14401097 144.69049032 43.8125 150.25 C43.43025269 151.84038086 43.43025269 151.84038086 43.0402832 153.46289062 C41.83324206 158.49030265 40.64210815 163.51985877 39.5 168.5625 C38.21047093 174.20974801 36.79259165 179.82142214 35.375 185.4375 C32.76890388 195.79271796 30.27001356 206.17125276 27.8125 216.5625 C27.62598877 217.35097321 27.43947754 218.13944641 27.24731445 218.95181274 C24.88800778 228.93379422 22.54986312 238.92064591 20.22265625 248.91015625 C19.2737604 252.98184617 18.32456473 257.05346601 17.375 261.125 C17.14058197 262.13021698 16.90616394 263.13543396 16.66464233 264.17111206 C13.15610174 279.2024418 9.50233278 294.18710658 5.71582031 309.15087891 C3.14754615 319.37317067 0.74367454 329.63400337 -1.546875 339.921875 C-2.11427883 342.46881786 -2.68199733 345.01569063 -3.25 347.5625 C-3.39370026 348.20728302 -3.53740051 348.85206604 -3.68545532 349.51638794 C-6.34705667 361.42531711 -9.28324796 373.25690703 -12.27902222 385.08560181 C-14.62107908 394.34209295 -16.87333692 403.59609429 -18.75683594 412.95874023 C-19.95672546 418.91731401 -21.41814444 424.78434468 -22.92578125 430.671875 C-24.49185192 436.87711636 -25.86263067 443.12900778 -27.24975586 449.3762207 C-27.44835205 450.26398193 -27.64694824 451.15174316 -27.8515625 452.06640625 C-28.02510254 452.84959229 -28.19864258 453.63277832 -28.37744141 454.43969727 C-29.15820626 457.65063099 -30.09218533 460.82264865 -31 464 C-49.81 464 -68.62 464 -88 464 C-89.77525179 457.49074343 -91.31182943 451.82706966 -92.3125 445.3125 C-93.65896796 437.09384855 -95.66402874 429.08720055 -97.7331543 421.0246582 C-99.346187 414.70824046 -100.82336156 408.38770669 -102.125 402 C-103.51845721 395.16788426 -105.12412643 388.42304354 -106.859375 381.66796875 C-108.71981947 374.2312648 -110.28673322 366.72121822 -111.89404297 359.2265625 C-112.25973389 357.54626953 -112.25973389 357.54626953 -112.6328125 355.83203125 C-112.84824707 354.82889893 -113.06368164 353.8257666 -113.28564453 352.79223633 C-113.98227445 350.06928472 -114.92885038 347.59399553 -116 345 C-116.3190765 343.34189305 -116.5859132 341.67325637 -116.8125 340 C-117.69028405 334.39987384 -118.9110364 328.94051605 -120.25 323.4375 C-122.20610441 315.39541495 -124.0451617 307.3356322 -125.8125 299.25 C-127.43875578 291.82154919 -129.12131817 284.41252779 -130.94921875 277.03125 C-131.2006086 276.01558456 -131.2006086 276.01558456 -131.45707703 274.97940063 C-131.79938867 273.59735908 -132.14175042 272.21532994 -132.48416138 270.83331299 C-135.75902046 257.60716792 -138.62424697 244.35982283 -141.09765625 230.95996094 C-142.16065557 225.21024064 -143.22937587 219.57663862 -145 214 C-145.16435547 214.89078247 -145.16435547 214.89078247 -145.33203125 215.79956055 C-150.30550277 242.57998621 -156.09953204 269.18549633 -162.35717773 295.69360352 C-164.63011944 305.34126328 -166.79977713 315.00911646 -168.9375 324.6875 C-171.75587728 337.44685178 -174.63266423 350.19118371 -177.56307983 362.92526245 C-179.38983055 370.86841098 -181.19123099 378.81569425 -182.91796875 386.78125 C-183.07342667 387.49766663 -183.22888458 388.21408325 -183.38905334 388.95220947 C-184.12061853 392.32861979 -184.84709645 395.70596145 -185.56665039 399.08496094 C-186.88076391 405.18646243 -188.29995835 411.22773952 -189.94140625 417.25 C-192.32355954 426.01842431 -194.25608536 434.87325077 -196.1875 443.75 C-196.71970067 446.18650003 -197.25288719 448.62277464 -197.78791809 451.05865479 C-198.11692251 452.55740962 -198.44422815 454.05653869 -198.76957703 455.55609131 C-199.39892289 458.43003732 -200.0687324 461.20619721 -201 464 C-219.48 464 -237.96 464 -257 464 C-258.98 455.09 -258.98 455.09 -261 446 C-261.94978609 442.45413193 -262.90002946 438.9083567 -263.8671875 435.3671875 C-266.26555322 426.32652396 -268.22330912 417.16700963 -270.30371094 408.04931641 C-272.36152542 399.03735888 -274.41757697 390.03819419 -276.875 381.125 C-278.82164329 373.96687073 -280.41484535 366.7459279 -282 359.5 C-283.82154074 351.18063153 -285.71565025 342.92707125 -287.98828125 334.71875 C-289.31272292 329.85053197 -290.53235785 324.9583558 -291.75 320.0625 C-291.97308838 319.1660376 -292.19617676 318.2695752 -292.42602539 317.34594727 C-292.95164275 315.23086964 -293.47596475 313.11547017 -294 311 C-305.66143617 320.87629747 -305.66143617 320.87629747 -316.14453125 331.95703125 C-319.07536366 335.18403199 -322.36851542 337.98201249 -325.66796875 340.82421875 C-328.10080918 342.98243786 -328.10080918 342.98243786 -330.17578125 345.76953125 C-330.77777344 346.50558594 -331.37976563 347.24164062 -332 348 C-332.66 348 -333.32 348 -334 348 C-334 348.66 -334 349.32 -334 350 C-335.328125 351.3046875 -335.328125 351.3046875 -337.25 352.875 C-337.971875 353.51566406 -338.69375 354.15632813 -339.4375 354.81640625 C-342 357 -342 357 -345.0625 359.21484375 C-352.00530006 364.64287045 -354.59440547 369.44720386 -355.90014648 378.21655273 C-356.17644061 380.50035513 -356.44541349 382.78505447 -356.70727539 385.07055664 C-359.41254076 408.54689975 -371.89214545 428.14989797 -389.8125 443.25 C-399.91510341 450.94266168 -411.21845417 456.38682731 -423 461 C-423.90363281 461.36867188 -424.80726563 461.73734375 -425.73828125 462.1171875 C-430.57763247 463.92406538 -435.12833053 465.06598275 -440.265625 465.5703125 C-455.40288515 467.19737442 -462.8109748 471.54929452 -472.93212891 482.77148438 C-476.44426634 486.55646554 -480.2663142 490.00414799 -484.0625 493.5 C-488.84951122 497.967574 -493.54411384 502.50583978 -498.13842773 507.171875 C-500.03031421 509.02976955 -501.98852682 510.77298544 -504 512.5 C-507.42782597 515.44578795 -510.61134817 518.56175347 -513.75 521.8125 C-515.69817315 523.70655723 -517.68714327 525.48950195 -519.73828125 527.26953125 C-523.9945004 530.96678335 -528.09831361 534.80735764 -532.1875 538.6875 C-537.28702607 543.50738717 -542.39662774 548.3137428 -547.5625 553.0625 C-552.35837643 557.47356391 -557.12396594 561.91567111 -561.875 566.375 C-562.54490967 567.00365967 -563.21481934 567.63231934 -563.9050293 568.2800293 C-565.26093242 569.55254234 -566.61680803 570.8250847 -567.97265625 572.09765625 C-576.0393203 579.66695373 -584.10309359 587.23000723 -592.3515625 594.6015625 C-596.38014795 598.2498685 -600.34083461 601.97007362 -604.30786133 605.68505859 C-609.34025961 610.39474435 -614.41429158 615.05616025 -619.51171875 619.6953125 C-621.72899641 621.74899197 -623.88067804 623.84593506 -626 626 C-626.66 625.67 -627.32 625.34 -628 625 C-627.28714844 624.29875 -626.57429687 623.5975 -625.83984375 622.875 C-620.95415628 618.04403496 -616.20406867 613.19137236 -611.7421875 607.9609375 C-609.7456211 605.71368115 -607.63987054 603.61105073 -605.5 601.5 C-602.81673907 598.85269566 -600.24743099 596.18903057 -597.8125 593.3125 C-594.40840017 589.33440675 -590.718736 585.67999412 -587 582 C-582.72482917 577.76932164 -578.59050454 573.51605082 -574.703125 568.921875 C-571.83639211 565.68693788 -568.72066478 562.70169991 -565.625 559.6875 C-563.62265911 557.63748433 -561.76384991 555.5805116 -559.90625 553.40625 C-554.59683055 547.2808808 -548.73682048 541.68002302 -542.97021484 535.99072266 C-537.71244583 530.79709336 -532.55234509 525.59398135 -527.74804688 519.97070312 C-523.42821934 515.10064057 -518.66484735 510.63064755 -514.02734375 506.06640625 C-510.46945049 502.54277841 -506.96545412 499.0332275 -503.71875 495.21875 C-497.97366188 488.52615605 -491.52088498 482.46784666 -485.25195312 476.27246094 C-483.54082693 474.57962012 -481.8328703 472.88362463 -480.125 471.1875 C-479.35905518 470.43400269 -479.35905518 470.43400269 -478.57763672 469.6652832 C-475.81360786 466.91960957 -473.1931262 464.10203759 -470.64990234 461.14990234 C-466.79265111 456.69611303 -462.66430312 452.55535597 -458.4765625 448.4140625 C-457.29639053 447.23957047 -457.29639053 447.23957047 -456.09237671 446.04135132 C-453.60568365 443.56677234 -451.11575341 441.09549161 -448.625 438.625 C-445.32267604 435.34920073 -442.02363303 432.07014826 -438.7265625 428.7890625 C-437.96622711 428.03702545 -437.20589172 427.2849884 -436.42251587 426.51016235 C-435.72443817 425.81538788 -435.02636047 425.1206134 -434.30712891 424.40478516 C-433.69092682 423.79381989 -433.07472473 423.18285461 -432.43984985 422.55337524 C-430.90452401 421.04241909 -430.90452401 421.04241909 -430 419 C-429.34 419 -428.68 419 -428 419 C-427.75191086 418.42626648 -427.50382172 417.85253296 -427.24821472 417.26141357 C-425.80788142 414.65193524 -424.14711516 412.91400793 -422.02856445 410.81738281 C-421.21043777 410.00263489 -420.3923111 409.18788696 -419.5493927 408.34844971 C-418.66297592 407.47549255 -417.77655914 406.6025354 -416.86328125 405.703125 C-415.46816115 404.31595494 -414.07304377 402.92878214 -412.67808056 401.54145432 C-410.72209932 399.5985963 -408.76162068 397.66030775 -406.80108643 395.7220459 C-403.39019258 392.34905243 -399.98389247 388.97143834 -396.5813446 385.59002686 C-394.77214595 383.79297047 -392.96028103 381.99859306 -391.14533997 380.20733643 C-390.31145248 379.37997986 -389.477565 378.55262329 -388.6184082 377.70019531 C-387.89385941 376.98389954 -387.16931061 376.26760376 -386.42280579 375.52960205 C-384.51670395 373.53948004 -382.72328344 371.52678865 -380.93305969 369.43603516 C-376.0394732 363.80718697 -370.7287511 358.58890232 -365.45263672 353.32324219 C-364.29696357 352.16621161 -363.14150274 351.00896892 -361.98623657 349.85153198 C-358.86890667 346.72966998 -355.74845432 343.61094708 -352.62726736 340.49294186 C-349.35296462 337.2211828 -346.08111592 333.94697107 -342.80886841 330.67315674 C-337.31822293 325.18069619 -331.82548174 319.6903381 -326.33154297 314.20117188 C-319.98519275 307.86027113 -313.64246387 301.51576509 -307.30158794 295.16939044 C-301.8467808 289.710043 -296.39002449 284.25264957 -290.93163884 278.79688001 C-287.67599425 275.54279209 -284.42102357 272.28803782 -281.16781235 269.03151703 C-278.1117513 265.97256367 -275.05324728 262.91607397 -271.99285507 259.86145401 C-270.87173922 258.7416581 -269.75146918 257.62101461 -268.63211823 256.4994545 C-267.10168619 254.96628107 -265.5681927 253.43623501 -264.03390503 251.90692139 C-262.74919721 250.6227791 -262.74919721 250.6227791 -261.43853569 249.31269455 C-259 247 -259 247 -256.24788094 244.81831741 C-253.92575 243.19662041 -253.92575 243.19662041 -253 241 C-252.34 241 -251.68 241 -251 241 C-251 240.34 -251 239.68 -251 239 C-249.52905273 237.55029297 -249.52905273 237.55029297 -247.49609375 235.8671875 C-243.1303228 232.15249463 -239.08921031 228.20104434 -235.0625 224.125 C-234.33812744 223.39684082 -233.61375488 222.66868164 -232.86743164 221.91845703 C-230.57581697 219.61474354 -228.28749348 217.30780526 -226 215 C-222.98214919 211.95535221 -219.96086584 208.91417033 -216.9375 205.875 C-215.92151733 204.84656982 -215.92151733 204.84656982 -214.88500977 203.79736328 C-211.00122899 199.8939747 -207.00177082 196.2042822 -202.83276367 192.60791016 C-200.34361526 190.42414415 -198.01211547 188.10715285 -195.6875 185.75 C-195.22947998 185.28819336 -194.77145996 184.82638672 -194.29956055 184.35058594 C-192.86383825 182.90287278 -191.43147568 181.45191143 -190 180 C-184.49149908 174.4128597 -178.98590158 168.90049117 -173.01953125 163.796875 C-168.82369441 160.06363526 -164.93973632 155.99942929 -161 152 C-155.79803766 146.71922004 -150.58895299 141.56390899 -144.9609375 136.73828125 C-141.30586083 133.49822325 -137.92108638 129.98340125 -134.5 126.5 C-129.77534871 121.68928948 -124.99683926 117.06234771 -119.88378906 112.66552734 C-116.42134033 109.6042488 -113.25074219 106.25480483 -110.05078125 102.92382812 C-108.7360282 101.58019807 -107.37183112 100.28530024 -106 99 C-105.34 99 -104.68 99 -104 99 C-104 98.34 -104 97.68 -104 97 C-102.56640625 95.58984375 -102.56640625 95.58984375 -100.5625 93.9375 C-97.39242783 91.24825006 -94.41418475 88.46486623 -91.5 85.5 C-88.13885518 82.0928121 -84.66298797 78.92541826 -81.03125 75.8125 C-77.96025683 73.07222917 -75.11213124 70.12053098 -72.22265625 67.19140625 C-69.5729856 64.57898932 -66.78827197 62.16697379 -63.96484375 59.74609375 C-61.18575486 57.2764064 -58.61139504 54.62096678 -56.00390625 51.97265625 C-53.41753849 49.42662171 -50.6846472 47.07978443 -47.93359375 44.71484375 C-46.04505403 43.03995701 -44.26844352 41.30052413 -42.5 39.5 C-39.57228792 36.52633728 -36.50534577 33.78821273 -33.34765625 31.0625 C-28.72870638 27.0045873 -24.24838482 22.79197639 -19.74072266 18.61132812 C-17.98038275 16.98184098 -16.2155527 15.35736135 -14.44921875 13.734375 C-13.87131592 13.20287842 -13.29341309 12.67138184 -12.69799805 12.1237793 C-11.59988549 11.11408414 -10.50113286 10.10508448 -9.40161133 9.09692383 C-6.18701079 6.13731159 -3.06900306 3.10849391 0 0 Z " fill="#020202" transform="translate(797,230)"/>
<path d="M0 0 C1.15048828 1.01320313 1.15048828 1.01320313 2.32421875 2.046875 C3.14277344 2.72234375 3.96132813 3.3978125 4.8046875 4.09375 C23.38389812 19.87887778 31.54953934 39.94815735 37.32421875 63.046875 C37.65421875 69.646875 37.98421875 76.246875 38.32421875 83.046875 C20.50421875 83.046875 2.68421875 83.046875 -15.67578125 83.046875 C-16.66578125 75.126875 -16.66578125 75.126875 -17.67578125 67.046875 C-22.2266594 50.36032177 -29.76261289 37.65634397 -44.70703125 28.64453125 C-67.6180351 16.31479365 -96.43740042 15.69776936 -121.0078125 23.04296875 C-135.29286891 27.94021822 -147.23995622 36.68513744 -153.98828125 50.359375 C-156.51905074 56.21051407 -158.08145562 61.7043062 -158.67578125 68.046875 C-158.75828125 68.91699219 -158.84078125 69.78710938 -158.92578125 70.68359375 C-159.46020015 82.12349841 -155.97332684 93.22605533 -148.67578125 102.046875 C-148.1859375 102.64757812 -147.69609375 103.24828125 -147.19140625 103.8671875 C-128.29678389 124.72610228 -93.16466952 129.92267657 -67.37084961 135.96459961 C-56.06165462 138.62499572 -45.00417089 141.62663278 -34.23510742 146.01611328 C-31.79899069 146.99725273 -29.3496148 147.92446605 -26.88671875 148.8359375 C-10.96949368 154.82055386 2.59739568 162.67841564 15.32421875 174.046875 C16.01644531 174.645 16.70867187 175.243125 17.421875 175.859375 C21.91253709 180.00185454 25.35028436 184.69951812 28.76171875 189.734375 C29.19943604 190.37648926 29.63715332 191.01860352 30.08813477 191.68017578 C34.38229878 198.22649991 34.38229878 198.22649991 34.32421875 202.046875 C32.69921875 204.22265625 32.69921875 204.22265625 30.32421875 206.359375 C27.40959625 209.02290671 24.70176885 211.71852202 22.13671875 214.71484375 C16.99165211 220.67496356 11.31251744 226.10317779 5.70703125 231.625 C4.85882813 232.46546875 4.010625 233.3059375 3.13671875 234.171875 C2.38003906 234.91695312 1.62335938 235.66203125 0.84375 236.4296875 C-1.16711844 238.51849657 -3.06651255 240.63436173 -4.95751953 242.82861328 C-8.77424794 247.22401897 -12.84218975 251.32306434 -16.98046875 255.4140625 C-18.12734665 256.55526047 -18.12734665 256.55526047 -19.2973938 257.71951294 C-21.71275508 260.12276513 -24.13135523 262.52271541 -26.55078125 264.921875 C-29.75935663 268.10392279 -32.96464789 271.28922615 -36.16796875 274.4765625 C-36.90643036 275.20672577 -37.64489197 275.93688904 -38.4057312 276.68917847 C-39.08378815 277.36393219 -39.76184509 278.03868591 -40.46044922 278.73388672 C-41.05888641 279.3270871 -41.65732361 279.92028748 -42.27389526 280.53146362 C-43.7749865 282.01270307 -43.7749865 282.01270307 -44.67578125 284.046875 C-45.33578125 284.046875 -45.99578125 284.046875 -46.67578125 284.046875 C-46.67578125 284.706875 -46.67578125 285.366875 -46.67578125 286.046875 C-47.33578125 286.046875 -47.99578125 286.046875 -48.67578125 286.046875 C-49.07216797 286.95179688 -49.07216797 286.95179688 -49.4765625 287.875 C-50.73333199 290.1511037 -51.83018287 291.21505933 -53.86328125 292.796875 C-56.49924887 294.94686283 -58.74701299 297.17381384 -60.94203186 299.7698822 C-64.53749718 303.93520569 -68.33276684 307.84513842 -72.22827148 311.72875977 C-72.94796112 312.45020172 -73.66765076 313.17164368 -74.40914917 313.91494751 C-76.76506619 316.27522963 -79.12457951 318.63187729 -81.484375 320.98828125 C-83.13686978 322.6414506 -84.78921617 324.2947683 -86.44142151 325.94822693 C-89.8952789 329.40355406 -93.35092668 332.85707781 -96.80786133 336.30932617 C-101.22370938 340.7194774 -105.63505237 345.13410327 -110.04505825 349.55009556 C-113.45343359 352.96209606 -116.8642015 356.37169685 -120.27568245 359.78059196 C-121.90260131 361.40684697 -123.52878659 363.03383622 -125.15420341 364.66159248 C-127.43168026 366.94162803 -129.71237126 369.21840116 -131.99389648 371.49438477 C-132.98621529 372.48973991 -132.98621529 372.48973991 -133.99858093 373.50520325 C-137.83846818 377.32795634 -141.79685766 380.95117449 -145.89659214 384.4933939 C-148.00420513 386.33363501 -150.00564972 388.25636106 -151.98046875 390.23803711 C-152.72063232 390.97827621 -153.4607959 391.71851532 -154.22338867 392.48118591 C-154.99142822 393.25438675 -155.75946777 394.02758759 -156.55078125 394.82421875 C-157.36071533 395.63556778 -158.17064941 396.44691681 -159.00512695 397.28285217 C-161.5643914 399.84766639 -164.12013655 402.41595448 -166.67578125 404.984375 C-168.42164258 406.73525783 -170.16773412 408.48591113 -171.9140625 410.23632812 C-176.17063323 414.50386116 -180.42432841 418.77424366 -184.67578125 423.046875 C-184.67578125 420.046875 -184.67578125 420.046875 -183.31811523 418.36450195 C-182.37947632 417.45897583 -182.37947632 417.45897583 -181.421875 416.53515625 C-180.73158203 415.85904297 -180.04128906 415.18292969 -179.33007812 414.48632812 C-178.23276367 413.43348633 -178.23276367 413.43348633 -177.11328125 412.359375 C-172.28271364 407.67907207 -167.61116102 402.97373667 -163.25219727 397.84643555 C-161.63159053 395.996429 -159.9322223 394.26767063 -158.17578125 392.546875 C-155.74188393 390.15634333 -153.46222566 387.69641238 -151.23828125 385.109375 C-148.81960346 382.30111153 -146.31678442 379.64716907 -143.67578125 377.046875 C-140.53260565 373.94568839 -137.60721749 370.73408767 -134.73046875 367.38671875 C-131.56935754 363.78689819 -128.29685149 360.29070706 -125.02636719 356.7902832 C-121.78345335 353.30345698 -118.69492398 349.72956558 -115.67578125 346.046875 C-116.32160156 346.03269531 -116.96742188 346.01851562 -117.6328125 346.00390625 C-133.57391365 345.19703793 -148.44608552 339.98293951 -162.67578125 333.046875 C-163.29904297 332.75474121 -163.92230469 332.46260742 -164.56445312 332.16162109 C-191.14436696 319.63919031 -209.87688012 297.82485783 -219.98828125 270.5 C-224.01489606 258.12408096 -224.67578125 247.28631183 -224.67578125 234.046875 C-206.85578125 234.046875 -189.03578125 234.046875 -170.67578125 234.046875 C-169.35578125 241.306875 -168.03578125 248.566875 -166.67578125 256.046875 C-162.84536566 264.88154322 -159.27367937 272.11908197 -152.67578125 279.046875 C-152.67578125 279.706875 -152.67578125 280.366875 -152.67578125 281.046875 C-152.10859375 281.30984375 -151.54140625 281.5728125 -150.95703125 281.84375 C-148.50472681 283.13708864 -146.40384403 284.64810854 -144.17578125 286.296875 C-132.5050468 294.50392657 -119.78966762 299.57805583 -105.53173828 300.80004883 C-103.50137492 300.97552304 -101.47368264 301.18320015 -99.44873047 301.4128418 C-82.86332398 303.44169011 -82.86332398 303.44169011 -68.02734375 297.31640625 C-64.11544185 293.63582423 -60.69931315 289.62914335 -57.44384766 285.36279297 C-52.45015112 278.82175385 -46.70771691 272.88575994 -41.05078125 266.921875 C-39.64550364 265.43390505 -38.24056089 263.94561879 -36.8359375 262.45703125 C-36.14000488 261.71984863 -35.44407227 260.98266602 -34.72705078 260.22314453 C-31.63706874 256.94486556 -28.55883522 253.65585002 -25.48828125 250.359375 C-24.97249512 249.80813965 -24.45670898 249.2569043 -23.92529297 248.68896484 C-22.49629055 247.152469 -21.08302342 245.60330186 -19.67578125 244.046875 C-19.19318848 243.52399902 -18.7105957 243.00112305 -18.21337891 242.46240234 C-15.60912048 239.54953635 -15.60912048 239.54953635 -14.16015625 235.984375 C-15.77264344 224.22270376 -22.32466372 213.23789832 -31.67578125 206.046875 C-36.18208831 203.01608441 -40.81056922 200.43669493 -45.67578125 198.046875 C-46.28856934 197.74539551 -46.90135742 197.44391602 -47.53271484 197.13330078 C-59.8808526 191.23438587 -73.00890188 188.15338503 -86.24511719 184.90136719 C-97.27624972 182.15378934 -108.20174125 179.08859188 -119.08251953 175.80224609 C-121.17288898 175.17274599 -123.26603598 174.55313604 -125.359375 173.93359375 C-137.78659418 170.2134303 -149.99170212 165.87029661 -161.42578125 159.671875 C-162.49034546 159.09953125 -162.49034546 159.09953125 -163.57641602 158.515625 C-173.66681004 152.97948512 -182.40469735 146.02750278 -190.67578125 138.046875 C-191.36414063 137.39589844 -192.0525 136.74492187 -192.76171875 136.07421875 C-202.40639842 126.18175087 -208.56077896 112.36229931 -211.67578125 99.046875 C-211.84948242 98.35207031 -212.02318359 97.65726562 -212.20214844 96.94140625 C-216.04781443 80.16031829 -215.57404468 60.28150888 -209.67578125 44.046875 C-209.09763672 42.42845703 -209.09763672 42.42845703 -208.5078125 40.77734375 C-198.08659511 13.96547376 -176.39572599 -4.4521118 -150.67578125 -15.953125 C-147.05588319 -17.49073816 -143.43249886 -18.79195774 -139.67578125 -19.953125 C-138.62003906 -20.28957031 -137.56429687 -20.62601562 -136.4765625 -20.97265625 C-93.66102738 -33.54883653 -35.34772266 -30.14780974 0 0 Z " fill="#020202" transform="translate(397.67578125,351.953125)"/>
<path d="M0 0 C0.33 0.66 0.66 1.32 1 2 C0.55011719 2.37769531 0.10023438 2.75539062 -0.36328125 3.14453125 C-7.73527378 9.45282946 -14.76011695 16.18006315 -21.05859375 23.56640625 C-26.73050934 30.10498251 -33.02085158 36.07568231 -39.17529297 42.15478516 C-40.8169273 43.77812025 -42.45538019 45.4046212 -44.09375 47.03125 C-44.5825061 47.51170776 -45.07126221 47.99216553 -45.5748291 48.48718262 C-48.14812915 51.04267737 -50.58125839 53.65926805 -52.92726135 56.42527771 C-58.0576033 62.30643708 -63.62177881 67.761524 -69.14233398 73.27172852 C-70.36210429 74.4928561 -71.58166225 75.71419582 -72.80102539 76.93572998 C-76.0941691 80.23340921 -79.39044005 83.52794544 -82.68744159 86.82176709 C-86.14852327 90.28030506 -89.60715083 93.74129586 -93.06617737 97.20188904 C-98.87378304 103.01131055 -104.68348599 108.81862842 -110.49438477 114.62475586 C-117.19853461 121.32346422 -123.89907457 128.02576725 -130.59775108 134.72994858 C-136.36427602 140.50102135 -142.13275975 146.27013076 -147.90286499 152.03762382 C-151.34248614 155.47569139 -154.78144104 158.91441807 -158.21862602 162.35492134 C-161.45115766 165.59035599 -164.68615326 168.82330717 -167.92301178 172.05441284 C-169.10575459 173.23584105 -170.2876615 174.41810682 -171.46863747 175.60130119 C-176.9863548 181.12842153 -182.49800822 186.6132041 -188.45273685 191.67647457 C-190.47604205 193.4072053 -192.35419343 195.25676937 -194.21875 197.15625 C-194.92386719 197.86910156 -195.62898437 198.58195313 -196.35546875 199.31640625 C-197.06316406 200.03699219 -197.77085937 200.75757813 -198.5 201.5 C-203.20336798 206.28903952 -207.96017723 210.89334324 -213.04882812 215.27148438 C-216.35052529 218.19641129 -219.41309482 221.35184031 -222.5 224.5 C-226.88514916 228.93255618 -231.27811904 233.24328301 -236.046875 237.265625 C-239.1470513 240.01858155 -242.0197751 242.99956035 -244.93017578 245.94970703 C-248.17428883 249.22086374 -251.53652822 252.26993632 -255.0390625 255.2578125 C-258.09091988 257.96922364 -260.91144766 260.90337147 -263.77734375 263.80859375 C-266.4270144 266.42101068 -269.21172803 268.83302621 -272.03515625 271.25390625 C-274.81561832 273.72481389 -277.39118218 276.3816694 -280 279.03125 C-282.56305228 281.55425459 -285.27345824 283.87562817 -288 286.21875 C-290.08337078 288.0742521 -292.04281207 290.01223101 -294 292 C-296.53972186 294.5792506 -299.12451314 297.02217389 -301.875 299.375 C-305.0840849 302.1247453 -308.04588797 305.04063311 -311 308.0625 C-315.06179439 312.18088286 -319.26941708 315.68948648 -324 319 C-326.80837759 309.66595076 -329.11745685 300.3176051 -331.14898682 290.78826904 C-334.15536692 276.73086894 -337.50254471 262.78577331 -341.125 248.875 C-344.23274043 236.93809981 -347.23331693 224.99815229 -349.94921875 212.96435547 C-351.57331052 205.78238966 -353.31708371 198.63782085 -355.125 191.5 C-356.95817318 184.24690715 -358.7392659 176.98791398 -360.375 169.6875 C-360.54273926 168.94628906 -360.71047852 168.20507812 -360.88330078 167.44140625 C-361.51803798 164.5600965 -362 161.96071374 -362 159 C-343.85 159 -325.7 159 -307 159 C-300.1382825 187.59048957 -300.1382825 187.59048957 -298.1875 196.9375 C-297.69550192 199.26045679 -297.20329974 201.58337037 -296.7109375 203.90625 C-296.44506836 205.16566406 -296.17919922 206.42507813 -295.90527344 207.72265625 C-294.25521677 215.52949556 -292.58272963 223.33157192 -290.91226196 231.13406372 C-290.32673439 233.87096491 -289.74274337 236.60819051 -289.15893555 239.34545898 C-287.18526316 248.58318765 -285.16967133 257.8059259 -283 267 C-280.87051714 267.21735532 -280.87051714 267.21735532 -279.26136589 265.50466824 C-278.55828867 264.79844861 -277.85521145 264.09222898 -277.13082886 263.36460876 C-276.32346786 262.55855194 -275.51610687 261.75249512 -274.6842804 260.92201233 C-273.79701767 260.02598801 -272.90975494 259.12996368 -271.99560547 258.20678711 C-271.05307446 257.26205595 -270.11009593 256.3177711 -269.16670227 255.37390137 C-267.13122283 253.33548178 -265.09894886 251.29393651 -263.06905746 249.24995232 C-259.8540654 246.01271739 -256.63202219 242.7825634 -253.40896606 239.55335999 C-248.30424476 234.43723868 -243.20421039 229.31647418 -238.10618508 224.1936813 C-228.99870769 215.04201436 -219.88583806 205.8957257 -210.76756394 196.75481611 C-207.5708345 193.54972014 -204.37693716 190.34183681 -201.18534541 187.13162506 C-199.18819936 185.12375373 -197.18895643 183.11797963 -195.18921471 181.11269379 C-193.8340222 179.75243423 -192.48140303 178.3896124 -191.12889099 177.02668762 C-186.78094685 172.67074864 -182.37377851 168.4622828 -177.68995857 164.46798038 C-175.15726797 162.26796188 -172.84394094 159.90042145 -170.5 157.5 C-166.79143749 153.73507247 -162.98121398 150.17172947 -158.9609375 146.7421875 C-155.90770829 144.02955756 -153.0859685 141.09399547 -150.21875 138.1875 C-147.6005296 135.60615594 -144.85007681 133.22546715 -142.0546875 130.83984375 C-138.83765901 127.95919656 -135.86943962 124.83936295 -132.8828125 121.72265625 C-131 120 -131 120 -129 120 C-129 119.34 -129 118.68 -129 118 C-127.51806641 116.52392578 -127.51806641 116.52392578 -125.4765625 114.8203125 C-121.32369876 111.28809653 -117.3373468 107.6183226 -113.375 103.875 C-111.97678867 102.55965538 -110.57834661 101.24455597 -109.1796875 99.9296875 C-108.13506348 98.94693848 -108.13506348 98.94693848 -107.06933594 97.94433594 C-99.73724692 91.055148 -92.41148121 84.17372317 -84.7890625 77.60546875 C-82.78316189 75.80541383 -80.89283978 73.91841869 -79 72 C-76.55336563 69.52036671 -74.07892226 67.14559624 -71.4375 64.875 C-67.46513531 61.45565079 -63.63727894 57.89473433 -59.8125 54.3125 C-59.16571289 53.70688232 -58.51892578 53.10126465 -57.85253906 52.47729492 C-56.54001911 51.24823094 -55.22751909 50.01914567 -53.91503906 48.79003906 C-46.51590983 41.87387186 -39.05594847 35.0275925 -31.515625 28.265625 C-28.7265438 25.75371957 -25.95405544 23.22414529 -23.1875 20.6875 C-22.69306396 20.23431396 -22.19862793 19.78112793 -21.68920898 19.31420898 C-18.9473592 16.79765643 -16.21407793 14.27221542 -13.48828125 11.73828125 C-12.90602783 11.19792236 -12.32377441 10.65756348 -11.72387695 10.10083008 C-10.60236695 9.05937121 -9.48233093 8.01632204 -8.36401367 6.97143555 C-5.6805513 4.48052374 -2.98471404 2.12373884 0 0 Z " fill="#030303" transform="translate(816,173)"/>
<path d="M0 0 C1.30612647 2.61225294 0.77980522 3.52688188 0.03125 6.3203125 C-0.20650146 7.23119629 -0.44425293 8.14208008 -0.68920898 9.08056641 C-0.95677002 10.08522949 -1.22433105 11.08989258 -1.5 12.125 C-4.03049076 21.91433737 -6.31189801 31.74107022 -8.4375 41.625 C-10.6968282 52.10709374 -13.03685905 62.56333565 -15.5 73 C-18.37048424 85.18517365 -21.08580349 97.39995751 -23.74246216 109.63299561 C-23.88803558 110.30324768 -24.03360901 110.97349976 -24.18359375 111.6640625 C-24.33021454 112.33930969 -24.47683533 113.01455688 -24.62789917 113.71026611 C-26.39003194 121.81318321 -28.19615019 129.90628931 -30 138 C-33.71067869 154.65710512 -37.36651782 171.3258952 -41 188 C-43.36403261 184.45395109 -44.00660141 181.09511674 -44.84765625 176.99609375 C-45.10634995 175.77527855 -45.10634995 175.77527855 -45.37026978 174.52980042 C-45.94025814 171.83357561 -46.50123299 169.13555251 -47.0625 166.4375 C-47.46063746 164.54867897 -47.85949255 162.66000908 -48.2590332 160.77148438 C-49.09195462 156.83117562 -49.92174723 152.89022826 -50.74902344 148.94873047 C-52.52037463 140.51581266 -54.31611127 132.08812566 -56.1184082 123.66177368 C-56.49737738 121.8892474 -56.87579662 120.11660345 -57.25366211 118.34384155 C-59.7992021 106.40476583 -62.42435027 94.49156123 -65.32495117 82.6328125 C-65.54900635 81.69695312 -65.77306152 80.76109375 -66.00390625 79.796875 C-66.19799072 79.00635742 -66.3920752 78.21583984 -66.59204102 77.40136719 C-66.79398071 76.21269043 -66.79398071 76.21269043 -67 75 C-67.15984375 74.06172363 -67.3196875 73.12344727 -67.484375 72.15673828 C-66.73727674 67.28779651 -63.72588828 65.00006675 -60.24609375 61.6953125 C-59.55242203 61.01250214 -58.85875031 60.32969177 -58.14405823 59.62619019 C-55.92226058 57.44454992 -53.68090806 55.2843916 -51.4375 53.125 C-49.22343071 50.96866804 -47.01363077 48.8080772 -44.80592346 46.64523315 C-43.43255723 45.30254547 -42.05484642 43.96428121 -40.67198181 42.63137817 C-36.79692344 38.87400999 -33.18509751 34.9846784 -29.66383362 30.89486694 C-27.21251671 28.10316991 -24.60089144 25.49456165 -21.953125 22.890625 C-21.1463028 22.08948273 -21.1463028 22.08948273 -20.32318115 21.27215576 C-18.63458572 19.5955941 -16.94273494 17.92238142 -15.25 16.25 C-13.00228095 14.02897142 -10.75797327 11.80457429 -8.515625 9.578125 C-7.75152313 8.82647064 -7.75152313 8.82647064 -6.97198486 8.05963135 C-4.40856113 5.51393336 -2.07250109 2.96246774 0 0 Z " fill="#FCFCFC" transform="translate(612,427)"/>
<path d="M0 0 C0.33 0.99 0.66 1.98 1 3 C-5.93 9.93 -12.86 16.86 -20 24 C-20 21 -20 21 -18.59472656 19.27001953 C-17.94987305 18.64724121 -17.30501953 18.02446289 -16.640625 17.3828125 C-15.93679687 16.69316406 -15.23296875 16.00351562 -14.5078125 15.29296875 C-13.76273438 14.57753906 -13.01765625 13.86210938 -12.25 13.125 C-5.7675545 6.88917486 -5.7675545 6.88917486 0 0 Z " fill="#393A3A" transform="translate(233,751)"/>
<path d="M0 0 C0.66 0.66 1.32 1.32 2 2 C-0.97 4.97 -3.94 7.94 -7 11 C-7.33 10.01 -7.66 9.02 -8 8 C-5.36 5.36 -2.72 2.72 0 0 Z " fill="#101011" transform="translate(242,742)"/>
</svg>
